<?xml version="1.0" encoding="UTF-8" standalone="no"?>
<!-- Created with Inkscape (http://www.inkscape.org/) -->

<svg
   width="800"
   height="400"
   viewBox="0 0 211.66666 105.83333"
   version="1.1"
   id="svg1"
   inkscape:version="1.4.2 (f4327f4, 2025-05-13)"
   sodipodi:docname="Mihovil_Mrak_logo.svg"
   xmlns:inkscape="http://www.inkscape.org/namespaces/inkscape"
   xmlns:sodipodi="http://sodipodi.sourceforge.net/DTD/sodipodi-0.dtd"
   xmlns="http://www.w3.org/2000/svg"
   xmlns:svg="http://www.w3.org/2000/svg">
  <sodipodi:namedview
     id="namedview1"
     pagecolor="#ffffff"
     bordercolor="#000000"
     borderopacity="0.25"
     inkscape:showpageshadow="2"
     inkscape:pageopacity="0.0"
     inkscape:pagecheckerboard="0"
     inkscape:deskcolor="#d1d1d1"
     inkscape:document-units="mm"
     inkscape:zoom="0.72604517"
     inkscape:cx="395.98087"
     inkscape:cy="230.7019"
     inkscape:window-width="1920"
     inkscape:window-height="1017"
     inkscape:window-x="-8"
     inkscape:window-y="-8"
     inkscape:window-maximized="1"
     inkscape:current-layer="layer1" />
  <defs
     id="defs1" />
  <g
     inkscape:label="Sloj 1"
     inkscape:groupmode="layer"
     id="layer1">
    <path
       style="fill:#52b788;fill-opacity:1;stroke-width:1.04113;stroke-dasharray:none"
       d=""
       id="path17"
       transform="scale(0.26458333)" />
    <path
       style="fill:#52b788;fill-opacity:1;stroke-width:1.04113;stroke-dasharray:none"
       d=""
       id="path19"
       transform="scale(0.26458333)" />
    <path
       style="fill:#52b788;fill-opacity:1;stroke-width:1.04113;stroke-dasharray:none"
       d=""
       id="path20"
       transform="scale(0.26458333)" />
    <path
       style="fill:#1b4332;fill-opacity:1;stroke-width:0.2;stroke-dasharray:none"
       d="M 86.002452,11.66135 C 93.334211,-29.826092 -0.36441718,55.755829 -0.36441718,55.755829 L 212.0908,56.849078 c 0,0 -132.616263,-8.248914 -126.088348,-45.187728 z"
       id="path21"
       sodipodi:nodetypes="sccs" />
    <g
       id="g21"
       transform="rotate(5.7982786,304.66404,-69.981766)">
      <path
         id="path2"
         style="fill:#52b788;fill-opacity:1;stroke-width:0.264999"
         d="m 151.70955,31.539319 c -6.45692,7.461239 0.54205,-1.703391 -14.1452,17.129117 C 126.87208,62.37846 104.32619,79.04336 92.896203,61.395286 83.419889,46.763715 101.12091,32.840033 118.46336,31.31723 c 36.03212,-3.163903 41.34576,-9.137264 33.24619,0.222089 z"
         sodipodi:nodetypes="sssss" />
      <g
         id="g20">
        <path
           style="fill:#000000;fill-opacity:1;stroke-width:0.264999;stroke-dasharray:none"
           id="path3"
           d="m 152.61414,26.915533 c -2.03474,1.142272 -4.0985,2.232517 -6.10093,3.431043 -1.96685,1.124487 -3.70906,2.578068 -5.55136,3.885437 -1.85481,1.203844 -3.701,2.427899 -5.58783,3.581218 -1.30626,0.764154 -2.65004,1.47524 -3.85881,2.390973 -0.72174,0.605886 -1.43006,1.229479 -2.22279,1.741284 -1.1962,0.633204 -2.42822,1.195255 -3.63671,1.80439 -1.49666,0.827521 -2.99948,1.639546 -4.44951,2.547733 -1.22397,0.675389 -2.45707,1.333172 -3.67887,2.012487 -1.42435,0.705345 -2.71526,1.618581 -4.01671,2.520691 -1.27142,0.731441 -2.51336,1.513848 -3.83328,2.155714 -1.43474,0.608433 -2.88511,1.175588 -4.32293,1.778614 -1.2328,0.469656 -2.39514,1.091258 -3.56971,1.686086 -0.94199,0.410239 -1.883599,0.833437 -2.848547,1.188535 -0.820312,0.341508 -1.61689,0.730546 -2.417588,1.115589 -0.808247,0.269737 -1.53456,0.697219 -2.293808,1.071086 -0.568822,0.290362 -1.035055,0.70998 -1.514345,1.122072 -0.09616,0.09775 -0.192323,0.195503 -0.288484,0.293253 0,0 0.842286,0.5157 0.842286,0.5157 v 0 c 0.09531,-0.09524 0.190624,-0.190471 0.285937,-0.285706 0.472724,-0.407519 0.939583,-0.815535 1.500794,-1.101529 0.755118,-0.380262 1.487143,-0.792062 2.289701,-1.071988 0.799481,-0.381572 1.59394,-0.76993 2.413088,-1.107848 0.964586,-0.362619 1.911356,-0.779137 2.851226,-1.200068 1.17251,-0.593815 2.3326,-1.214403 3.56395,-1.681665 1.43663,-0.608105 2.89001,-1.169373 4.32253,-1.785331 1.32252,-0.646978 2.57262,-1.424229 3.84254,-2.167451 1.29857,-0.900808 2.58966,-1.808419 4.01066,-2.512997 1.22469,-0.677976 2.46302,-1.330348 3.68372,-2.015556 1.44636,-0.907013 2.94323,-1.722765 4.43981,-2.543 1.21557,-0.606774 2.45649,-1.163632 3.65379,-1.80616 0.79238,-0.515673 1.50083,-1.141886 2.22383,-1.749131 1.20545,-0.91223 2.54283,-1.624685 3.84325,-2.389643 1.88325,-1.162375 3.73367,-2.382067 5.58908,-3.588062 1.83956,-1.30588 3.57728,-2.759908 5.54179,-3.882623 2.00551,-1.199131 4.06976,-2.295458 6.12058,-3.414566 z" />
        <path
           style="fill:#000000;fill-opacity:1;stroke-width:0.264999;stroke-dasharray:none"
           id="path4"
           d="m 101.79933,56.917121 c 0.85341,0.862647 1.6522,1.779445 2.57179,2.573557 1.0879,0.815594 2.30179,1.454772 3.61517,1.807739 0.83357,0.156073 1.6733,0.223007 2.49537,0.440751 0.76802,0.22964 1.55859,0.338325 2.32525,0.568854 0.85663,0.270817 1.7322,0.462809 2.60975,0.653817 0.99434,0.21993 2.00711,0.309735 3.02221,0.353174 0.8337,0.02779 1.66798,0.02543 2.50202,0.02421 0,0 -0.79972,-0.580845 -0.79972,-0.580845 v 0 c -0.83238,0.0013 -1.66503,0.0038 -2.49701,-0.02619 -1.01126,-0.04695 -2.0199,-0.142952 -3.0098,-0.365022 -0.87772,-0.195046 -1.75372,-0.391454 -2.61113,-0.663813 -0.76687,-0.224491 -1.55948,-0.329981 -2.32479,-0.563838 -0.82369,-0.204425 -1.66406,-0.271433 -2.49373,-0.441711 -0.41124,-0.116187 -0.51856,-0.135149 -0.92235,-0.296894 -0.16324,-0.06539 -0.31071,-0.24887 -0.48278,-0.21263 -0.14163,0.02983 0.50428,0.270624 0.36331,0.237789 -0.16544,-0.03854 -0.75581,-0.478092 -0.87979,-0.566119 -0.9277,-0.780184 -1.71708,-1.700246 -2.57291,-2.555832 z" />
        <path
           style="fill:#000000;fill-opacity:1;stroke-width:0.264999;stroke-dasharray:none"
           id="path5"
           d="m 111.03562,53.973137 c 1.62612,1.121288 3.39561,1.872644 5.27169,2.436579 1.86945,0.511445 3.80926,0.613521 5.73525,0.694428 1.304,0.04672 2.60901,0.04739 3.91365,0.04351 0.86191,-0.0401 1.73562,0.06403 2.59171,-0.05541 0.42529,-0.08324 0.21426,-0.04166 0.63309,-0.124712 0,0 -0.81242,-0.566369 -0.81242,-0.566369 v 0 c -0.41668,0.08215 -0.2072,0.0422 -0.62847,0.119763 -0.85454,0.09949 -1.7217,0.0131 -2.58024,0.04852 -1.30048,0.0039 -2.60131,0.007 -3.90118,-0.03987 -1.92252,-0.08109 -3.85846,-0.19214 -5.72142,-0.714684 -1.38822,-0.423495 -2.86605,-0.971248 -3.58098,-1.484643 z" />
        <path
           style="fill:#000000;fill-opacity:1;stroke-width:0.264999;stroke-dasharray:none"
           id="path6"
           d="m 123.91098,47.445316 c 1.22451,0.570187 2.53527,0.905949 3.86249,1.127873 1.26978,0.181814 2.55615,0.181592 3.83614,0.191731 1.26117,0.0037 2.52234,-0.0039 3.78351,-0.0061 0.61507,-0.0055 1.21268,-0.150857 1.81004,-0.278929 0,0 -0.80653,-0.560538 -0.80653,-0.560538 v 0 c -0.59275,0.125026 -1.18628,0.262506 -1.79621,0.263795 -1.26136,0.0031 -2.52274,0.0069 -3.78411,0.0044 -1.27694,-0.0099 -2.56028,-0.01439 -3.82602,-0.203904 -1.32703,-0.230928 -2.63209,-0.577966 -3.85781,-1.147839 z" />
        <path
           style="fill:#000000;fill-opacity:1;stroke-width:0.264999;stroke-dasharray:none"
           id="path7"
           d="m 137.03729,38.967521 c 1.10742,0.133617 2.2195,0.220096 3.33334,0.27555 0.84718,-0.02336 1.68788,-0.206285 2.46865,-0.534514 0.6312,-0.262996 1.27729,-0.490347 1.90969,-0.752149 0.44371,-0.168892 0.21954,-0.09088 0.6725,-0.234022 0,0 -0.81789,-0.556247 -0.81789,-0.556247 v 0 c -0.4563,0.148834 -0.23066,0.06871 -0.67697,0.240242 -0.63468,0.256186 -1.27783,0.490969 -1.90994,0.752229 -0.77583,0.311793 -1.60143,0.496345 -2.43987,0.501597 -1.11377,-0.05641 -2.22611,-0.142409 -3.3326,-0.284107 z" />
        <path
           style="fill:#000000;fill-opacity:1;stroke-width:0.264999;stroke-dasharray:none"
           id="path8"
           d="m 137.82606,36.317584 c 0.0912,-1.167853 0.16978,-2.335387 0.3958,-3.485846 0.18858,-0.679016 0.45595,-1.288198 0.90523,-1.829948 0.48061,-0.70112 0.95125,-1.387047 1.58867,-1.956581 0.38126,-0.358955 0.18853,-0.190648 0.57656,-0.506796 0,0 -0.83798,-0.524835 -0.83798,-0.524835 v 0 c -0.38948,0.322678 -0.19666,0.152569 -0.57737,0.51159 -0.63553,0.577136 -1.11353,1.264224 -1.59845,1.967503 -0.4595,0.555696 -0.73322,1.179163 -0.92556,1.874998 -0.22502,1.156409 -0.29846,2.328826 -0.40847,3.500732 z" />
        <path
           style="fill:#000000;fill-opacity:1;stroke-width:0.264999;stroke-dasharray:none"
           id="path9"
           d="m 124.30176,45.786915 c -0.14344,-1.105643 -0.22803,-2.217531 -0.28348,-3.330694 -0.0202,-1.142397 0.45788,-2.183151 0.93503,-3.194153 0.39941,-0.843018 0.8139,-1.679959 1.24941,-2.505054 0.44538,-0.815718 0.92324,-1.619652 1.31786,-2.462233 0.43722,-0.940592 1.02704,-1.798088 1.59738,-2.660997 0.42547,-0.545227 0.21901,-0.277746 0.61976,-0.80215 0,0 -0.84699,-0.503508 -0.84699,-0.503508 v 0 c -0.39997,0.526666 -0.19325,0.256786 -0.62056,0.809347 -0.57267,0.86714 -1.16933,1.726219 -1.60804,2.671586 -0.39162,0.842221 -0.87056,1.643895 -1.31604,2.457706 -0.43618,0.826476 -0.84953,1.665769 -1.24822,2.510814 -0.48323,1.024702 -0.96732,2.079302 -0.95931,3.235944 0.0564,1.114449 0.1443,2.226987 0.27618,3.335242 z" />
        <path
           style="fill:#000000;fill-opacity:1;stroke-width:0.264999;stroke-dasharray:none"
           id="path10"
           d="m 111.50735,52.383382 c -0.37074,-1.281049 -0.48251,-2.615967 -0.57052,-3.940799 -0.11045,-1.58565 -0.0415,-3.180302 0.17263,-4.754102 0.14101,-0.995635 0.3705,-1.977596 0.68593,-2.932165 0.20595,-0.817322 0.58102,-1.556623 0.99985,-2.280378 0.47658,-0.775949 0.94009,-1.560028 1.4526,-2.313345 0.50726,-0.740629 0.96357,-1.509601 1.43281,-2.273088 0.32752,-0.594513 0.59879,-1.214797 0.92136,-1.812248 0,0 -0.85913,-0.492691 -0.85913,-0.492691 v 0 c -0.32105,0.596265 -0.59289,1.214229 -0.91688,1.808583 -0.46565,0.763961 -0.9219,1.530729 -1.42744,2.270726 -0.51381,0.755335 -0.98082,1.540187 -1.45887,2.318044 -0.42151,0.729795 -0.80068,1.474771 -1.00924,2.298226 -0.31921,0.960313 -0.54607,1.950223 -0.68659,2.952451 -0.21472,1.579316 -0.28647,3.180942 -0.17988,4.772324 0.0835,1.328174 0.19493,2.665426 0.54878,3.953576 z" />
        <path
           style="fill:#000000;fill-opacity:1;stroke-width:0.264999;stroke-dasharray:none"
           id="path11"
           d="m 102.99946,55.606351 c -1.16093,-1.727967 -1.93221,-3.668302 -2.70077,-5.591008 -0.498662,-1.212919 -0.887602,-2.46267 -1.056002,-3.764108 -0.125246,-1.141404 0.187719,-2.260081 0.463307,-3.356147 0.28806,-1.088953 0.714305,-2.127977 1.157895,-3.160048 0.30228,-0.657119 0.59437,-1.316943 0.93426,-1.956271 0,0 -0.85705,-0.490831 -0.85705,-0.490831 v 0 c -0.34119,0.641781 -0.6327,1.305015 -0.93681,1.964351 -0.443178,1.038199 -0.869716,2.082752 -1.159395,3.176918 -0.279313,1.105548 -0.603266,2.2332 -0.486693,3.385418 0.165436,1.312831 0.556279,2.572837 1.062302,3.79463 0.770846,1.919714 1.531926,3.86207 2.675416,5.598599 z" />
        <path
           style="fill:#52b788;fill-opacity:1;stroke-width:1.04113;stroke-dasharray:none"
           d="m 299.15494,268.99153 c -0.90903,-0.90904 -1.65279,-3.6822 -1.65279,-6.16259 0,-3.70541 0.79842,-4.91358 4.47631,-6.77356 2.46196,-1.24506 7.81306,-4.8248 11.89132,-7.95498 4.07827,-3.13018 13.06531,-9.20368 19.97121,-13.49666 l 12.55619,-7.80542 2.28567,4.36211 c 1.25712,2.39916 2.12014,4.53208 1.91782,4.73982 -0.20231,0.20775 -4.8863,1.62985 -10.40887,3.16023 -11.67977,3.23663 -20.55435,8.0842 -25.4488,13.90093 -2.67767,3.18223 -3.4676,5.66574 -3.4676,10.90196 v 6.78095 h -5.23384 c -2.87861,0 -5.97759,-0.74376 -6.88662,-1.65279 z"
           id="path18"
           transform="scale(0.26458333)" />
      </g>
    </g>
    <text
       xml:space="preserve"
       style="font-style:normal;font-variant:normal;font-weight:normal;font-stretch:normal;font-size:20.3152px;font-family:Montserrat;-inkscape-font-specification:Montserrat;text-align:start;writing-mode:lr-tb;direction:ltr;text-anchor:start;fill:#52db4f;fill-opacity:1;stroke-width:0.205666;stroke-dasharray:none"
       x="61.761848"
       y="77.672562"
       id="text21"
       transform="scale(0.97244746,1.0283332)"><tspan
         sodipodi:role="line"
         id="tspan21"
         style="fill:#52db4f;fill-opacity:1;stroke-width:0.205666"
         x="61.761848"
         y="77.672562">EcoWave</tspan></text>
    <text
       xml:space="preserve"
       style="font-style:normal;font-variant:normal;font-weight:normal;font-stretch:normal;font-size:9.87777px;font-family:Montserrat;-inkscape-font-specification:Montserrat;text-align:start;writing-mode:lr-tb;direction:ltr;text-anchor:start;fill:#1b4332;fill-opacity:1;stroke-width:0.2;stroke-dasharray:none"
       x="82.813416"
       y="91.468719"
       id="text22"><tspan
         sodipodi:role="line"
         id="tspan22"
         style="stroke-width:0.2"
         x="82.813416"
         y="91.468719">Solutions</tspan></text>
    <path
       style="fill:#000000;fill-opacity:1;stroke:#000000;stroke-width:0.79375;stroke-dasharray:none;stroke-opacity:1"
       d="M 59.582211,83.087116 H 152.14417 Z"
       id="path22" />
    <path
       style="fill:#66ff00;fill-opacity:1;stroke:#00f100;stroke-width:0.79375;stroke-dasharray:none;stroke-opacity:1"
       d="M 81.811654,92.92638 H 129.91473 Z"
       id="path23" />
  </g>
</svg>
